<svg width="60" height="60" viewBox="0 0 60 60" fill="none" xmlns="http://www.w3.org/2000/svg">
<g clip-path="url(#clip0_58_225)">
<path d="M78 0H3C1.34315 0 0 1.34315 0 3V78C0 79.6569 1.34315 81 3 81H78C79.6569 81 81 79.6569 81 78V3C81 1.34315 79.6569 0 78 0Z" fill="#616161"/>
<mask id="mask0_58_225" style="mask-type:luminance" maskUnits="userSpaceOnUse" x="0" y="0" width="60" height="60">
<path d="M0 0H60V60H0V0Z" fill="white"/>
</mask>
<g mask="url(#mask0_58_225)">
<path fill-rule="evenodd" clip-rule="evenodd" d="M-0.774658 57.8587C-0.774658 59.4958 0.546469 60.8205 2.1846 60.8205H48.0192V28.2731C48.0192 25.8203 46.0308 23.8331 43.5758 23.8331H-0.774658V57.8587Z" fill="black"/>
<path fill-rule="evenodd" clip-rule="evenodd" d="M18.3332 34H10.3332C9.78097 34 9.33325 34.4477 9.33325 35V43C9.33325 43.5523 9.78097 44 10.3332 44H18.3332C18.8855 44 19.3332 43.5523 19.3332 43V35C19.3332 34.4477 18.8855 34 18.3332 34Z" stroke="#878787"/>
<path d="M29.3333 34.8333L37.6667 43.1667" stroke="#878787" stroke-linecap="round" stroke-linejoin="round"/>
<path d="M29.3333 43.1667L37.6667 34.8333" stroke="#878787" stroke-linecap="round" stroke-linejoin="round"/>
</g>
</g>
<defs>
<clipPath id="clip0_58_225">
<rect width="60" height="60" fill="white"/>
</clipPath>
</defs>
</svg>
