<svg width="60" height="60" viewBox="0 0 60 60" fill="none" xmlns="http://www.w3.org/2000/svg">
<path d="M57.7778 0H2.22222C0.994923 0 0 0.994923 0 2.22222V57.7778C0 59.0051 0.994923 60 2.22222 60H57.7778C59.0051 60 60 59.0051 60 57.7778V2.22222C60 0.994923 59.0051 0 57.7778 0Z" fill="#616161"/>
<mask id="mask0_0_1" style="mask-type:luminance" maskUnits="userSpaceOnUse" x="0" y="0" width="60" height="60">
<path d="M57.7778 0H2.22222C0.994923 0 0 0.994923 0 2.22222V57.7778C0 59.0051 0.994923 60 2.22222 60H57.7778C59.0051 60 60 59.0051 60 57.7778V2.22222C60 0.994923 59.0051 0 57.7778 0Z" fill="white"/>
</mask>
<g mask="url(#mask0_0_1)">
<path d="M60.7746 57.8587C60.7746 59.4958 59.4534 60.8205 57.8153 60.8205H11.9807V28.2731C11.9807 25.8203 13.9691 23.8331 16.4241 23.8331H60.7746V57.8587Z" fill="black"/>
</g>
<path d="M21.5239 40.8C23.6226 40.8 25.3239 39.0987 25.3239 37C25.3239 34.9013 23.6226 33.2 21.5239 33.2C19.4252 33.2 17.7239 34.9013 17.7239 37C17.7239 39.0987 19.4252 40.8 21.5239 40.8Z" stroke="#FF5F57" stroke-width="1.44762"/>
<path d="M36 40.8C38.0986 40.8 39.8 39.0987 39.8 37C39.8 34.9013 38.0986 33.2 36 33.2C33.9013 33.2 32.2 34.9013 32.2 37C32.2 39.0987 33.9013 40.8 36 40.8Z" stroke="#FEBC2E" stroke-width="1.44762"/>
<path d="M50.4763 40.8C52.575 40.8 54.2763 39.0987 54.2763 37C54.2763 34.9013 52.575 33.2 50.4763 33.2C48.3776 33.2 46.6763 34.9013 46.6763 37C46.6763 39.0987 48.3776 40.8 50.4763 40.8Z" stroke="#28C840" stroke-width="1.44762"/>
</svg>
