<svg   width="54"
                height="14" viewBox="0 0 38 14" fill="none" xmlns="http://www.w3.org/2000/svg">
<path d="M4.52388 10.8C6.62256 10.8 8.32388 9.09868 8.32388 7C8.32388 4.90131 6.62256 3.2 4.52388 3.2C2.42519 3.2 0.723877 4.90131 0.723877 7C0.723877 9.09868 2.42519 10.8 4.52388 10.8Z" stroke="#FF5F57" stroke-width="1.44762"/>
<path d="M19 10.8C21.0986 10.8 22.8 9.09868 22.8 7C22.8 4.90131 21.0986 3.2 19 3.2C16.9013 3.2 15.2 4.90131 15.2 7C15.2 9.09868 16.9013 10.8 19 10.8Z" stroke="#FEBC2E" stroke-width="1.44762"/>
<path d="M33.4763 10.8C35.575 10.8 37.2763 9.09868 37.2763 7C37.2763 4.90131 35.575 3.2 33.4763 3.2C31.3776 3.2 29.6763 4.90131 29.6763 7C29.6763 9.09868 31.3776 10.8 33.4763 10.8Z" stroke="#28C840" stroke-width="1.44762"/>
</svg>
